<svg width="13" height="15" viewBox="0 0 13 15" fill="none" xmlns="http://www.w3.org/2000/svg">
<path d="M1.55017 5.39708C1.56269 5.23784 1.63353 5.08927 1.74858 4.98094C1.86364 4.8726 2.01445 4.81247 2.171 4.8125H10.8291C10.9857 4.81247 11.1365 4.8726 11.2515 4.98094C11.3666 5.08927 11.4374 5.23784 11.45 5.39708L11.9961 12.3357C12.0098 12.5106 11.9879 12.6865 11.9318 12.8523C11.8757 13.0181 11.7865 13.1703 11.67 13.2992C11.5534 13.4281 11.4119 13.531 11.2544 13.6014C11.097 13.6718 10.9269 13.7082 10.755 13.7082H2.24511C2.07319 13.7082 1.90315 13.6718 1.74568 13.6014C1.58822 13.531 1.44674 13.4281 1.33016 13.2992C1.21358 13.1703 1.12442 13.0181 1.0683 12.8523C1.01217 12.6865 0.9903 12.5106 1.00405 12.3357L1.54954 5.39708H1.55017Z" stroke="black" stroke-width="0.812543" stroke-linecap="round" stroke-linejoin="round"/>
<path d="M8.99053 6.71868V3.54164C8.99053 2.86755 8.72811 2.22108 8.26099 1.74443C7.79387 1.26778 7.16032 1 6.49972 1C5.83912 1 5.20557 1.26778 4.73845 1.74443C4.27133 2.22108 4.00891 2.86755 4.00891 3.54164V6.71868" stroke="black" stroke-width="0.812543" stroke-linecap="round" stroke-linejoin="round"/>
</svg>
