<svg width="16" height="15" viewBox="0 0 16 15" fill="none" xmlns="http://www.w3.org/2000/svg">
<path d="M7.79029 0.351246C7.82621 0.240689 7.98262 0.240689 8.01855 0.351246L9.72972 5.61769C9.74578 5.66713 9.79186 5.70061 9.84384 5.70061H15.3813C15.4976 5.70061 15.5459 5.84936 15.4518 5.91769L10.9719 9.17253C10.9299 9.20309 10.9123 9.25726 10.9283 9.3067L12.6395 14.5731C12.6754 14.6837 12.5489 14.7756 12.4549 14.7073L7.97495 11.4525C7.93289 11.4219 7.87594 11.4219 7.83388 11.4525L3.35398 14.7073C3.25993 14.7756 3.1334 14.6837 3.16932 14.5731L4.88049 9.3067C4.89655 9.25726 4.87895 9.20309 4.8369 9.17253L0.35699 5.91769C0.262945 5.84936 0.311278 5.70061 0.427525 5.70061H5.96499C6.01698 5.70061 6.06306 5.66713 6.07912 5.61769L7.79029 0.351246Z" fill="#FCC232"/>
</svg>
